<?xml version="1.0" encoding="utf-8"?>
<!-- Generator: Adobe Illustrator 24.2.1, SVG Export Plug-In . SVG Version: 6.00 Build 0)  -->
<svg version="1.1" id="Layer_1" xmlns="http://www.w3.org/2000/svg" xmlns:xlink="http://www.w3.org/1999/xlink" x="0px" y="0px"
	 viewBox="0 0 3300 2200" style="enable-background:new 0 0 3300 2200;" xml:space="preserve">
<style type="text/css">
	.st0{fill:#FFFFFF;}
	.st1{fill:none;stroke:#000000;stroke-width:0.5;}
	.st2{font-family:'Arial-BoldMT';}
	.st3{font-size:12px;}
	.st4{font-family:'ArialMT';}
	.st5{fill:none;stroke:#00AEEF;stroke-width:0.5;}
	.st6{fill:#27AAE1;}
	.st7{fill:none;stroke:#27AAE1;stroke-width:0.5;}
</style>
<g id="Notes">
	<rect id="artboard" x="14.6" y="-5" class="st0" width="3300" height="2200"/>
	<line class="st1" x1="277.6" y1="287" x2="3050.6" y2="287"/>
	<text transform="matrix(1 0 0 1 277.5706 316.9578)" class="st2 st3">Weight/Scale Variations</text>
	<text transform="matrix(1 0 0 1 550.6068 316.9578)" class="st4 st3">Ultralight</text>
	<text transform="matrix(1 0 0 1 859.3207 316.9578)" class="st4 st3">Thin</text>
	<text transform="matrix(1 0 0 1 1154.6898 316.9578)" class="st4 st3">Light</text>
	<text transform="matrix(1 0 0 1 1443.3988 316.9578)" class="st4 st3">Regular</text>
	<text transform="matrix(1 0 0 1 1739.7908 316.9578)" class="st4 st3">Medium</text>
	<text transform="matrix(1 0 0 1 2032.8269 316.9578)" class="st4 st3">Semibold</text>
	<text transform="matrix(1 0 0 1 2342.5417 316.9578)" class="st4 st3">Bold</text>
	<text transform="matrix(1 0 0 1 2634.2537 316.9578)" class="st4 st3">Heavy</text>
	<text transform="matrix(1 0 0 1 2933.2986 316.9578)" class="st4 st3">Black</text>
	<line class="st1" x1="277.6" y1="1898" x2="3050.6" y2="1898"/>
	<g transform="matrix(1 0 0 1 263 1933)">
		<path d="M23.8-4.2c4.3,0,7.9-3.6,7.9-7.9S28.1-20,23.8-20s-7.9,3.6-7.9,7.9C16-7.7,19.6-4.2,23.8-4.2z M23.8-5.7
			c-3.5,0-6.4-2.8-6.4-6.4s2.8-6.4,6.4-6.4s6.4,2.8,6.4,6.4C30.3-8.5,27.4-5.7,23.8-5.7z M23.8-8.6c0.5,0,0.7-0.3,0.7-0.8v-1.9h2
			c0.5,0,0.8-0.3,0.8-0.7c0-0.5-0.3-0.7-0.8-0.7h-2v-2c0-0.5-0.3-0.8-0.7-0.8s-0.7,0.3-0.7,0.8v2h-2c-0.5-0.1-0.9,0.2-0.9,0.7
			s0.4,0.7,0.8,0.7h2v1.9C23.1-9,23.4-8.6,23.8-8.6z"/>
	</g>
	<g transform="matrix(1 0 0 1 281.506 1933)">
		<path d="M26.3-2.1c5.4,0,10-4.5,10-10c0-5.4-4.5-10-10-10c-5.4,0-10,4.5-10,10C16.3-6.6,20.9-2.1,26.3-2.1z M26.3-3.8
			c-4.6,0-8.3-3.7-8.3-8.3s3.7-8.3,8.3-8.3s8.3,3.7,8.3,8.3C34.6-7.4,30.9-3.8,26.3-3.8z M26.3-7.7c0.5,0,0.8-0.4,0.8-0.9v-2.6h2.8
			c0.5,0,0.9-0.3,0.9-0.8s-0.4-0.8-0.9-0.8h-2.8v-2.8c0-0.6-0.3-0.9-0.8-0.9s-0.8,0.4-0.8,0.9v2.8h-2.8c-0.6-0.1-1,0.2-1,0.8
			c0,0.5,0.4,0.8,0.9,0.8h2.8v2.6C25.5-8,25.8-7.7,26.3-7.7z"/>
	</g>
	<g transform="matrix(1 0 0 1 304.924 1933)">
		<path d="M29.6,0.7c7,0,12.7-5.8,12.7-12.7c0-7-5.8-12.7-12.7-12.7c-7-0.1-12.7,5.7-12.7,12.6C16.9-5.1,22.6,0.7,29.6,0.7z
			 M29.6-1.2c-6.1,0-10.9-4.8-10.9-10.9c0-6,4.8-10.9,10.9-10.9c6,0,10.9,4.9,10.9,10.9C40.5-6,35.6-1.2,29.6-1.2z M29.5-6.4
			c0.6,0,0.9-0.4,0.9-1v-3.8h3.9c0.6,0,1-0.3,1-0.9c0-0.6-0.4-0.9-1-0.9h-3.9v-3.9c0-0.6-0.3-1-0.9-1c-0.6,0-0.9,0.4-0.9,1v3.9h-3.9
			c-0.6,0-1,0.3-1,0.9c0,0.6,0.4,0.9,1,0.9h3.9v3.8C28.7-6.8,29-6.4,29.5-6.4z"/>
	</g>
	<text transform="matrix(1 0 0 1 277.5706 1947.9578)" class="st2 st3">Design Variations</text>
	<text transform="matrix(1 0 0 1 277.5706 1965.9578)" class="st4 st3">Symbols are supported in up to nine weights and three scales.</text>
	<text transform="matrix(1 0 0 1 277.5706 1983.9578)" class="st4 st3">For optimal layout with text and other symbols, vertically align</text>
	<text transform="matrix(1 0 0 1 277.5706 2001.9578)" class="st4 st3">symbols with the adjacent text.</text>
	<line class="st5" x1="790.6" y1="1914" x2="790.6" y2="1928"/>
	<g transform="matrix(1 0 0 1 776 1933)">
		<path d="M17.9-4.9c0.5,0,0.8-0.2,1-0.7l1.3-3.5H26l1.3,3.5c0.2,0.5,0.4,0.7,0.9,0.7S29-5.2,29-5.7c0-0.2,0-0.3-0.1-0.5l-4.6-12.2
			C24-19,23.6-19.3,23-19.3s-1,0.3-1.2,0.9L17.2-6.2c-0.1,0.2-0.1,0.4-0.1,0.5C17.1-5.2,17.4-4.9,17.9-4.9z M20.6-10.5l2.4-6.6l0,0
			l2.4,6.6C25.4-10.5,20.6-10.5,20.6-10.5z"/>
	</g>
	<line class="st5" x1="807.4" y1="1914" x2="807.4" y2="1928"/>
	<text transform="matrix(1 0 0 1 790.5706 1947.9578)" class="st2 st3">Margins</text>
	<text transform="matrix(1 0 0 1 790.5706 1965.9578)" class="st4 st3">Leading and trailing margins on the left and right side of each symbol</text>
	<text transform="matrix(1 0 0 1 790.5706 1983.9578)" class="st4 st3">can be adjusted by modifying the x-location of the margin guidelines.</text>
	<text transform="matrix(1 0 0 1 790.5706 2001.9578)" class="st4 st3">Modifications are automatically applied proportionally to all</text>
	<text transform="matrix(1 0 0 1 790.5706 2019.9578)" class="st4 st3">scales and weights.</text>
	<g transform="matrix(1 0 0 1 1289 1933)">
		<path d="M17.4-3.1l1.7,1.7c0.9,0.9,1.8,0.8,2.8-0.2l10.2-11.3c0.3,0.1,0.5,0.1,0.8,0L34-13l0.7,0.7v0.6c0,0.5,0.1,0.9,0.6,1.4
			l0.8,0.7c0.5,0.5,1.1,0.5,1.6,0l2.9-2.9c0.5-0.5,0.4-1.1,0-1.5l-1-0.9c-0.5-0.5-0.8-0.6-1.3-0.6h-0.6l-0.6-0.6l0.2-1.1
			c0.1-0.6,0-1-0.6-1.6L34.5-21c-3.3-3.3-7.8-3.2-10.7-0.4c-0.4,0.4-0.4,1-0.2,1.4c0.2,0.4,0.7,0.6,1.3,0.4c1.5-0.3,3-0.4,4.4,0.5
			l-0.6,1.5c-0.2,0.5-0.2,0.9-0.1,1.2l-11,10.5C16.7-5,16.6-4,17.4-3.1z M25.4-21c2.4-1.8,5.7-1.5,7.9,0.8l2.4,2.4
			c0.2,0.2,0.3,0.4,0.2,0.8l-0.3,1.5l1.5,1.5l1-0.1c0.3,0,0.3,0,0.5,0.2l0.6,0.6l-2.4,2.4l-0.6-0.6C36-11.7,36-11.8,36-12l0.1-1
			l-1.5-1.5l-1.5,0.3c-0.3,0.1-0.5,0-0.7-0.2l-2-2c-0.3-0.2-0.3-0.4-0.1-0.8l0.9-2.1c-1.6-1.5-3.6-2.1-5.6-1.5
			C25.3-20.7,25.2-20.8,25.4-21z M19.9-2.7l-1.2-1.2c-0.5-0.4-0.4-0.8,0-1.1l10.9-10.2l1.5,1.5l-10,11C20.7-2.3,20.3-2.2,19.9-2.7z"
			/>
	</g>
	<text transform="matrix(1 0 0 1 1303.5706 1947.9578)" class="st2 st3">Exporting</text>
	<text transform="matrix(1 0 0 1 1303.5706 1965.9578)" class="st4 st3">Symbols should be outlined when exporting to ensure the</text>
	<text transform="matrix(1 0 0 1 1303.5706 1983.9578)" class="st4 st3">design is preserved when submitting to Xcode.</text>
	<text id="template-version" transform="matrix(1 0 0 1 2973.4202 1927.9578)" class="st4 st3">Template v.2.0</text>
	<text transform="matrix(1 0 0 1 2893.1467 1945.9578)" class="st4 st3">Requires Xcode 12 or greater</text>
	<text transform="matrix(1 0 0 1 2911.8381 1963.9578)" class="st4 st3">Generated from square.fill</text>
	<text transform="matrix(1 0 0 1 2936.4944 1981.9578)" class="st4 st3">Typeset at 100 points</text>
	<text transform="matrix(1 0 0 1 277.5706 720.9578)" class="st4 st3">Small</text>
	<text transform="matrix(1 0 0 1 277.5706 1150.9578)" class="st4 st3">Medium</text>
	<text transform="matrix(1 0 0 1 277.5706 1580.9578)" class="st4 st3">Large</text>
</g>
<g id="Guides">
	<g id="H-reference" transform="matrix(1 0 0 1 339 696)">
		<path class="st6" d="M1,0h2.7L13-24.5h32.7L55.1,0h2.6L30.6-70.5h-2.5L1,0z M29.3-67.1L29.3-67.1l15.6,40.4h-31L29.3-67.1z"/>
	</g>
	<line id="Baseline-S" class="st7" x1="263" y1="696" x2="3036" y2="696"/>
	<line id="Capline-S" class="st7" x1="263" y1="625.5" x2="3036" y2="625.5"/>
	<g id="H-reference_1_" transform="matrix(1 0 0 1 339 1126)">
		<path class="st6" d="M1,0h2.7L13-24.5h32.7L55.1,0h2.6L30.6-70.5h-2.5L1,0z M29.3-67.1L29.3-67.1l15.6,40.4h-31L29.3-67.1z"/>
	</g>
	<line id="Baseline-M" class="st7" x1="263" y1="1126" x2="3036" y2="1126"/>
	<line id="Capline-M" class="st7" x1="263" y1="1055.5" x2="3036" y2="1055.5"/>
	<g id="H-reference_2_" transform="matrix(1 0 0 1 339 1556)">
		<path class="st6" d="M1,0h2.7L13-24.5h32.7L55.1,0h2.6L30.6-70.5h-2.5L1,0z M29.3-67.1L29.3-67.1l15.6,40.4h-31L29.3-67.1z"/>
	</g>
	<line id="Baseline-L" class="st7" x1="263" y1="1556" x2="3036" y2="1556"/>
	<line id="Capline-L" class="st7" x1="263" y1="1485.5" x2="3036" y2="1485.5"/>
	<line id="left-margin" class="st5" x1="1392.4" y1="1030.8" x2="1392.4" y2="1150.1"/>
	<line id="right-margin" class="st5" x1="1507.2" y1="1030.8" x2="1507.2" y2="1150.1"/>
</g>
<g id="Ultralight-S_1_">
	<rect x="529.3" y="649.1" width="7.7" height="26.2"/>
	<path d="M579.1,675.2L579.1,675.2c-7.2,0-13.1-5.9-13.1-13.1v0c0-7.2,5.9-13.1,13.1-13.1l0,0V675.2z"/>
	<path d="M533.2,646.9L533.2,646.9c-2.1,0-3.9-1.7-3.9-3.9l0,0c0-2.1,1.7-3.9,3.9-3.9l0,0c2.1,0,3.9,1.7,3.9,3.9l0,0
		C537.1,645.2,535.3,646.9,533.2,646.9z"/>
	<polygon points="538.7,661.9 538.7,675.2 550.3,675.2 	"/>
	<polygon points="564.8,662.4 564.8,649.1 553.2,649.1 	"/>
	<polygon points="538.7,658.3 553.2,675.2 564.8,675.2 564.7,665.1 550.7,649.1 538.7,649.1 	"/>
	<rect x="579" y="649.1" width="2.1" height="26.2"/>
	<polygon points="581.1,649.1 592.7,649.1 592.7,660.3 581.1,649.5 	"/>
	<polygon points="581.1,675.2 592.7,675.2 592.7,664 581.1,674.9 	"/>
</g>
<g id="Ultralight-L">
	<rect x="511" y="1503.4" width="12.9" height="43.4"/>
	<path d="M593.7,1546.8L593.7,1546.8c-12,0-21.7-9.7-21.7-21.7v0c0-12,9.7-21.7,21.7-21.7h0V1546.8z"/>
	<path d="M517.4,1499.7L517.4,1499.7c-3.6,0-6.4-2.9-6.4-6.4l0,0c0-3.6,2.9-6.4,6.4-6.4l0,0c3.6,0,6.4,2.9,6.4,6.4l0,0
		C523.9,1496.8,521,1499.7,517.4,1499.7z"/>
	<polygon points="526.6,1524.6 526.6,1546.8 545.8,1546.8 	"/>
	<polygon points="569.9,1525.5 569.9,1503.4 550.6,1503.4 	"/>
	<polygon points="526.6,1518.6 550.7,1546.8 570,1546.8 569.8,1530 546.6,1503.4 526.6,1503.4 	"/>
	<rect x="593.4" y="1503.4" width="3.5" height="43.4"/>
	<polygon points="597,1503.4 616.2,1503.4 616.2,1522 597,1504 	"/>
	<polygon points="597,1546.8 616.2,1546.8 616.2,1528.1 597,1546.2 	"/>
</g>
<g id="Thin-L">
	<rect x="779.7" y="1502" width="12.9" height="43.4"/>
	<path d="M862.4,1545.4L862.4,1545.4c-12,0-21.7-9.7-21.7-21.7l0,0c0-12,9.7-21.7,21.7-21.7l0,0V1545.4z"/>
	<path d="M786.1,1498.3L786.1,1498.3c-3.6,0-6.4-2.9-6.4-6.4l0,0c0-3.6,2.9-6.4,6.4-6.4h0c3.6,0,6.4,2.9,6.4,6.4l0,0
		C792.5,1495.5,789.7,1498.3,786.1,1498.3z"/>
	<polygon points="795.2,1523.2 795.2,1545.4 814.4,1545.4 	"/>
	<polygon points="838.5,1524.2 838.5,1502 819.3,1502 	"/>
	<polygon points="795.2,1517.3 819.3,1545.4 838.7,1545.4 838.5,1528.6 815.2,1502 795.2,1502 	"/>
	<rect x="862.1" y="1502" width="3.5" height="43.4"/>
	<polygon points="865.6,1502 884.8,1502 884.8,1520.6 865.6,1502.6 	"/>
	<polygon points="865.6,1545.4 884.8,1545.4 884.8,1526.8 865.6,1544.8 	"/>
</g>
<g id="Light-L">
	<rect x="1079.3" y="1506.2" width="12.9" height="43.4"/>
	<path d="M1162,1549.6L1162,1549.6c-12,0-21.7-9.7-21.7-21.7l0,0c0-12,9.7-21.7,21.7-21.7h0V1549.6z"/>
	<path d="M1085.8,1502.5L1085.8,1502.5c-3.6,0-6.4-2.9-6.4-6.4l0,0c0-3.6,2.9-6.4,6.4-6.4h0c3.6,0,6.4,2.9,6.4,6.4l0,0
		C1092.2,1499.7,1089.3,1502.5,1085.8,1502.5z"/>
	<polygon points="1094.9,1527.4 1094.9,1549.6 1114.1,1549.6 	"/>
	<polygon points="1138.2,1528.3 1138.2,1506.2 1119,1506.2 	"/>
	<polygon points="1094.9,1521.5 1119,1549.6 1138.3,1549.6 1138.1,1532.8 1114.9,1506.2 1094.9,1506.2 	"/>
	<rect x="1161.8" y="1506.2" width="3.5" height="43.4"/>
	<polygon points="1165.3,1506.2 1184.5,1506.2 1184.5,1524.8 1165.3,1506.8 	"/>
	<polygon points="1165.3,1549.6 1184.5,1549.6 1184.5,1530.9 1165.3,1549 	"/>
</g>
<g id="Regular-L">
	<rect x="1393.8" y="1507.3" width="12.9" height="43.4"/>
	<path d="M1476.4,1550.7L1476.4,1550.7c-12,0-21.7-9.7-21.7-21.7v0c0-12,9.7-21.7,21.7-21.7l0,0V1550.7z"/>
	<path d="M1400.2,1503.7L1400.2,1503.7c-3.6,0-6.4-2.9-6.4-6.4l0,0c0-3.6,2.9-6.4,6.4-6.4l0,0c3.6,0,6.4,2.9,6.4,6.4l0,0
		C1406.6,1500.8,1403.7,1503.7,1400.2,1503.7z"/>
	<polygon points="1409.3,1528.6 1409.3,1550.7 1428.5,1550.7 	"/>
	<polygon points="1452.6,1529.5 1452.6,1507.3 1433.4,1507.3 	"/>
	<polygon points="1409.3,1522.6 1433.4,1550.7 1452.7,1550.7 1452.5,1533.9 1429.3,1507.3 1409.3,1507.3 	"/>
	<rect x="1476.2" y="1507.3" width="3.5" height="43.4"/>
	<polygon points="1479.7,1507.3 1498.9,1507.3 1498.9,1525.9 1479.7,1507.9 	"/>
	<polygon points="1479.7,1550.7 1498.9,1550.7 1498.9,1532.1 1479.7,1550.1 	"/>
</g>
<g id="Medium-L">
	<rect x="1674.2" y="1501" width="12.9" height="43.4"/>
	<path d="M1756.9,1544.4L1756.9,1544.4c-12,0-21.7-9.7-21.7-21.7l0,0c0-12,9.7-21.7,21.7-21.7l0,0V1544.4z"/>
	<path d="M1680.6,1497.3L1680.6,1497.3c-3.6,0-6.4-2.9-6.4-6.4l0,0c0-3.6,2.9-6.4,6.4-6.4l0,0c3.6,0,6.4,2.9,6.4,6.4l0,0
		C1687.1,1494.5,1684.2,1497.3,1680.6,1497.3z"/>
	<polygon points="1689.8,1522.2 1689.8,1544.4 1709,1544.4 	"/>
	<polygon points="1733.1,1523.2 1733.1,1501 1713.8,1501 	"/>
	<polygon points="1689.8,1516.3 1713.9,1544.4 1733.2,1544.4 1733,1527.6 1709.8,1501 1689.8,1501 	"/>
	<rect x="1756.6" y="1501" width="3.5" height="43.4"/>
	<polygon points="1760.2,1501 1779.4,1501 1779.4,1519.6 1760.2,1501.6 	"/>
	<polygon points="1760.2,1544.4 1779.4,1544.4 1779.4,1525.8 1760.2,1543.8 	"/>
</g>
<g id="Semibold-L">
	<rect x="1959.6" y="1499.2" width="12.9" height="43.4"/>
	<path d="M2042.3,1542.7L2042.3,1542.7c-12,0-21.7-9.7-21.7-21.7l0,0c0-12,9.7-21.7,21.7-21.7h0V1542.7z"/>
	<path d="M1966.1,1495.6L1966.1,1495.6c-3.6,0-6.4-2.9-6.4-6.4l0,0c0-3.6,2.9-6.4,6.4-6.4l0,0c3.6,0,6.4,2.9,6.4,6.4l0,0
		C1972.5,1492.7,1969.6,1495.6,1966.1,1495.6z"/>
	<polygon points="1975.2,1520.5 1975.2,1542.7 1994.4,1542.7 	"/>
	<polygon points="2018.5,1521.4 2018.5,1499.2 1999.3,1499.2 	"/>
	<polygon points="1975.2,1514.5 1999.3,1542.7 2018.6,1542.7 2018.4,1525.9 1995.2,1499.2 1975.2,1499.2 	"/>
	<rect x="2042.1" y="1499.2" width="3.5" height="43.4"/>
	<polygon points="2045.6,1499.2 2064.8,1499.2 2064.8,1517.9 2045.6,1499.9 	"/>
	<polygon points="2045.6,1542.6 2064.8,1542.6 2064.8,1524 2045.6,1542 	"/>
</g>
<g id="Bold-L">
	<rect x="2248.6" y="1499.2" width="12.9" height="43.4"/>
	<path d="M2331.3,1542.7L2331.3,1542.7c-12,0-21.7-9.7-21.7-21.7l0,0c0-12,9.7-21.7,21.7-21.7h0V1542.7z"/>
	<path d="M2255,1495.6L2255,1495.6c-3.6,0-6.4-2.9-6.4-6.4l0,0c0-3.6,2.9-6.4,6.4-6.4l0,0c3.6,0,6.4,2.9,6.4,6.4l0,0
		C2261.5,1492.7,2258.6,1495.6,2255,1495.6z"/>
	<polygon points="2264.1,1520.5 2264.1,1542.7 2283.4,1542.7 	"/>
	<polygon points="2307.4,1521.4 2307.4,1499.2 2288.2,1499.2 	"/>
	<polygon points="2264.1,1514.5 2288.3,1542.7 2307.6,1542.7 2307.4,1525.9 2284.2,1499.2 2264.1,1499.2 	"/>
	<rect x="2331" y="1499.2" width="3.5" height="43.4"/>
	<polygon points="2334.5,1499.2 2353.7,1499.2 2353.7,1517.9 2334.5,1499.9 	"/>
	<polygon points="2334.5,1542.6 2353.7,1542.6 2353.7,1524 2334.5,1542 	"/>
</g>
<g id="Heavy-L">
	<rect x="2565.3" y="1503.8" width="12.9" height="43.4"/>
	<path d="M2648,1547.2L2648,1547.2c-12,0-21.7-9.7-21.7-21.7l0,0c0-12,9.7-21.7,21.7-21.7l0,0V1547.2z"/>
	<path d="M2571.7,1500.2L2571.7,1500.2c-3.6,0-6.4-2.9-6.4-6.4l0,0c0-3.6,2.9-6.4,6.4-6.4l0,0c3.6,0,6.4,2.9,6.4,6.4l0,0
		C2578.2,1497.3,2575.3,1500.2,2571.7,1500.2z"/>
	<polygon points="2580.8,1525.1 2580.8,1547.2 2600.1,1547.2 	"/>
	<polygon points="2624.2,1526 2624.2,1503.8 2604.9,1503.8 	"/>
	<polygon points="2580.8,1519.1 2605,1547.2 2624.3,1547.2 2624.1,1530.5 2600.9,1503.8 2580.8,1503.8 	"/>
	<rect x="2647.7" y="1503.8" width="3.5" height="43.4"/>
	<polygon points="2651.2,1503.8 2670.5,1503.8 2670.5,1522.5 2651.2,1504.4 	"/>
	<polygon points="2651.2,1547.2 2670.5,1547.2 2670.5,1528.6 2651.2,1546.6 	"/>
</g>
<g id="Black-L">
	<rect x="2843.5" y="1504.9" width="12.9" height="43.4"/>
	<path d="M2926.1,1548.4L2926.1,1548.4c-12,0-21.7-9.7-21.7-21.7l0,0c0-12,9.7-21.7,21.7-21.7l0,0V1548.4z"/>
	<path d="M2849.9,1501.3L2849.9,1501.3c-3.6,0-6.4-2.9-6.4-6.4l0,0c0-3.6,2.9-6.4,6.4-6.4l0,0c3.6,0,6.4,2.9,6.4,6.4l0,0
		C2856.3,1498.4,2853.4,1501.3,2849.9,1501.3z"/>
	<polygon points="2859,1526.2 2859,1548.4 2878.2,1548.4 	"/>
	<polygon points="2902.3,1527.1 2902.3,1504.9 2883.1,1504.9 	"/>
	<polygon points="2859,1520.2 2883.1,1548.4 2902.4,1548.4 2902.2,1531.6 2879,1504.9 2859,1504.9 	"/>
	<rect x="2925.9" y="1504.9" width="3.5" height="43.4"/>
	<polygon points="2929.4,1504.9 2948.6,1504.9 2948.6,1523.6 2929.4,1505.5 	"/>
	<polygon points="2929.4,1548.3 2948.6,1548.3 2948.6,1529.7 2929.4,1547.7 	"/>
</g>
<g id="Ultralight-M_1_">
	<rect x="516.9" y="1079.5" width="10.2" height="34.5"/>
	<path d="M582.5,1113.9L582.5,1113.9c-9.5,0-17.2-7.7-17.2-17.2l0,0c0-9.5,7.7-17.2,17.2-17.2h0V1113.9z"/>
	<path d="M522,1076.6L522,1076.6c-2.8,0-5.1-2.3-5.1-5.1l0,0c0-2.8,2.3-5.1,5.1-5.1h0c2.8,0,5.1,2.3,5.1,5.1l0,0
		C527.1,1074.3,524.8,1076.6,522,1076.6z"/>
	<polygon points="529.2,1096.4 529.2,1113.9 544.5,1113.9 	"/>
	<polygon points="563.6,1097.1 563.6,1079.5 548.3,1079.5 	"/>
	<polygon points="529.2,1091.6 548.4,1113.9 563.7,1113.9 563.5,1100.6 545.1,1079.5 529.2,1079.5 	"/>
	<rect x="582.3" y="1079.5" width="2.8" height="34.5"/>
	<polygon points="585.1,1079.5 600.3,1079.5 600.3,1094.3 585.1,1080 	"/>
	<polygon points="585.1,1113.9 600.3,1113.9 600.3,1099.1 585.1,1113.4 	"/>
</g>
<g id="Thin-M">
	<rect x="793.5" y="1079.5" width="10.2" height="34.5"/>
	<path d="M859.1,1113.9L859.1,1113.9c-9.5,0-17.2-7.7-17.2-17.2l0,0c0-9.5,7.7-17.2,17.2-17.2h0V1113.9z"/>
	<path d="M798.6,1076.6L798.6,1076.6c-2.8,0-5.1-2.3-5.1-5.1l0,0c0-2.8,2.3-5.1,5.1-5.1l0,0c2.8,0,5.1,2.3,5.1,5.1l0,0
		C803.7,1074.3,801.4,1076.6,798.6,1076.6z"/>
	<polygon points="805.8,1096.4 805.8,1113.9 821,1113.9 	"/>
	<polygon points="840.2,1097.1 840.2,1079.5 824.9,1079.5 	"/>
	<polygon points="805.8,1091.6 824.9,1113.9 840.3,1113.9 840.1,1100.6 821.7,1079.5 805.8,1079.5 	"/>
	<rect x="858.9" y="1079.5" width="2.8" height="34.5"/>
	<polygon points="861.6,1079.5 876.9,1079.5 876.9,1094.3 861.6,1080 	"/>
	<polygon points="861.6,1113.9 876.9,1113.9 876.9,1099.1 861.6,1113.4 	"/>
</g>
<g id="Light-M">
	<rect x="1093.1" y="1079.5" width="10.2" height="34.5"/>
	<path d="M1158.7,1113.9L1158.7,1113.9c-9.5,0-17.2-7.7-17.2-17.2l0,0c0-9.5,7.7-17.2,17.2-17.2l0,0V1113.9z"/>
	<path d="M1098.2,1076.6L1098.2,1076.6c-2.8,0-5.1-2.3-5.1-5.1l0,0c0-2.8,2.3-5.1,5.1-5.1l0,0c2.8,0,5.1,2.3,5.1,5.1l0,0
		C1103.3,1074.3,1101.1,1076.6,1098.2,1076.6z"/>
	<polygon points="1105.5,1096.4 1105.5,1113.9 1120.7,1113.9 	"/>
	<polygon points="1139.8,1097.1 1139.8,1079.5 1124.6,1079.5 	"/>
	<polygon points="1105.5,1091.6 1124.6,1113.9 1139.9,1113.9 1139.8,1100.6 1121.4,1079.5 1105.5,1079.5 	"/>
	<rect x="1158.5" y="1079.5" width="2.8" height="34.5"/>
	<polygon points="1161.3,1079.5 1176.6,1079.5 1176.6,1094.3 1161.3,1080 	"/>
	<polygon points="1161.3,1113.9 1176.6,1113.9 1176.6,1099.1 1161.3,1113.4 	"/>
</g>
<g id="Regular-M">
	<rect x="1404.6" y="1079.5" width="10.2" height="34.5"/>
	<path d="M1470.2,1113.9L1470.2,1113.9c-9.5,0-17.2-7.7-17.2-17.2l0,0c0-9.5,7.7-17.2,17.2-17.2l0,0V1113.9z"/>
	<path d="M1409.7,1076.6L1409.7,1076.6c-2.8,0-5.1-2.3-5.1-5.1l0,0c0-2.8,2.3-5.1,5.1-5.1l0,0c2.8,0,5.1,2.3,5.1,5.1l0,0
		C1414.8,1074.3,1412.5,1076.6,1409.7,1076.6z"/>
	<polygon points="1417,1096.4 1417,1113.9 1432.2,1113.9 	"/>
	<polygon points="1451.3,1097.1 1451.3,1079.5 1436.1,1079.5 	"/>
	<polygon points="1417,1091.6 1436.1,1113.9 1451.4,1113.9 1451.3,1100.6 1432.8,1079.5 1417,1079.5 	"/>
	<rect x="1470" y="1079.5" width="2.8" height="34.5"/>
	<polygon points="1472.8,1079.5 1488,1079.5 1488,1094.3 1472.8,1080 	"/>
	<polygon points="1472.8,1113.9 1488,1113.9 1488,1099.1 1472.8,1113.4 	"/>
</g>
<g id="Medium-M">
	<rect x="1693.8" y="1079.5" width="10.2" height="34.5"/>
	<path d="M1759.4,1113.9L1759.4,1113.9c-9.5,0-17.2-7.7-17.2-17.2l0,0c0-9.5,7.7-17.2,17.2-17.2l0,0V1113.9z"/>
	<path d="M1698.9,1076.6L1698.9,1076.6c-2.8,0-5.1-2.3-5.1-5.1l0,0c0-2.8,2.3-5.1,5.1-5.1l0,0c2.8,0,5.1,2.3,5.1,5.1l0,0
		C1704,1074.3,1701.7,1076.6,1698.9,1076.6z"/>
	<polygon points="1706.1,1096.4 1706.1,1113.9 1721.4,1113.9 	"/>
	<polygon points="1740.5,1097.1 1740.5,1079.5 1725.2,1079.5 	"/>
	<polygon points="1706.1,1091.6 1725.3,1113.9 1740.6,1113.9 1740.4,1100.6 1722,1079.5 1706.1,1079.5 	"/>
	<rect x="1759.2" y="1079.5" width="2.8" height="34.5"/>
	<polygon points="1762,1079.5 1777.2,1079.5 1777.2,1094.3 1762,1080 	"/>
	<polygon points="1762,1113.9 1777.2,1113.9 1777.2,1099.1 1762,1113.4 	"/>
</g>
<g id="Semibold-M">
	<rect x="1985.2" y="1079.5" width="10.2" height="34.5"/>
	<path d="M2050.8,1113.9L2050.8,1113.9c-9.5,0-17.2-7.7-17.2-17.2l0,0c0-9.5,7.7-17.2,17.2-17.2l0,0V1113.9z"/>
	<path d="M1990.3,1076.6L1990.3,1076.6c-2.8,0-5.1-2.3-5.1-5.1l0,0c0-2.8,2.3-5.1,5.1-5.1l0,0c2.8,0,5.1,2.3,5.1,5.1l0,0
		C1995.4,1074.3,1993.1,1076.6,1990.3,1076.6z"/>
	<polygon points="1997.5,1096.4 1997.5,1113.9 2012.8,1113.9 	"/>
	<polygon points="2031.9,1097.1 2031.9,1079.5 2016.6,1079.5 	"/>
	<polygon points="1997.5,1091.6 2016.7,1113.9 2032,1113.9 2031.8,1100.6 2013.4,1079.5 1997.5,1079.5 	"/>
	<rect x="2050.6" y="1079.5" width="2.8" height="34.5"/>
	<polygon points="2053.4,1079.5 2068.6,1079.5 2068.6,1094.3 2053.4,1080 	"/>
	<polygon points="2053.4,1113.9 2068.6,1113.9 2068.6,1099.1 2053.4,1113.4 	"/>
</g>
<g id="Bold-M">
	<rect x="2272.7" y="1079.5" width="10.2" height="34.5"/>
	<path d="M2338.3,1113.9L2338.3,1113.9c-9.5,0-17.2-7.7-17.2-17.2l0,0c0-9.5,7.7-17.2,17.2-17.2l0,0V1113.9z"/>
	<path d="M2277.8,1076.6L2277.8,1076.6c-2.8,0-5.1-2.3-5.1-5.1l0,0c0-2.8,2.3-5.1,5.1-5.1l0,0c2.8,0,5.1,2.3,5.1,5.1l0,0
		C2282.9,1074.3,2280.6,1076.6,2277.8,1076.6z"/>
	<polygon points="2285,1096.4 2285,1113.9 2300.2,1113.9 	"/>
	<polygon points="2319.4,1097.1 2319.4,1079.5 2304.1,1079.5 	"/>
	<polygon points="2285,1091.6 2304.1,1113.9 2319.5,1113.9 2319.3,1100.6 2300.9,1079.5 2285,1079.5 	"/>
	<rect x="2338.1" y="1079.5" width="2.8" height="34.5"/>
	<polygon points="2340.8,1079.5 2356.1,1079.5 2356.1,1094.3 2340.8,1080 	"/>
	<polygon points="2340.8,1113.9 2356.1,1113.9 2356.1,1099.1 2340.8,1113.4 	"/>
</g>
<g id="Heavy-M">
	<rect x="2569.5" y="1076.2" width="10.2" height="34.5"/>
	<path d="M2635.1,1110.7L2635.1,1110.7c-9.5,0-17.2-7.7-17.2-17.2l0,0c0-9.5,7.7-17.2,17.2-17.2l0,0V1110.7z"/>
	<path d="M2574.6,1073.3L2574.6,1073.3c-2.8,0-5.1-2.3-5.1-5.1l0,0c0-2.8,2.3-5.1,5.1-5.1l0,0c2.8,0,5.1,2.3,5.1,5.1l0,0
		C2579.7,1071,2577.4,1073.3,2574.6,1073.3z"/>
	<polygon points="2581.8,1093.1 2581.8,1110.7 2597.1,1110.7 	"/>
	<polygon points="2616.2,1093.8 2616.2,1076.2 2600.9,1076.2 	"/>
	<polygon points="2581.8,1088.3 2601,1110.7 2616.3,1110.7 2616.1,1097.4 2597.7,1076.2 2581.8,1076.2 	"/>
	<rect x="2634.9" y="1076.2" width="2.8" height="34.5"/>
	<polygon points="2637.7,1076.2 2652.9,1076.2 2652.9,1091 2637.7,1076.7 	"/>
	<polygon points="2637.7,1110.7 2652.9,1110.7 2652.9,1095.9 2637.7,1110.2 	"/>
</g>
<g id="Black-M">
	<rect x="2857" y="1076.2" width="10.2" height="34.5"/>
	<path d="M2922.6,1110.7L2922.6,1110.7c-9.5,0-17.2-7.7-17.2-17.2l0,0c0-9.5,7.7-17.2,17.2-17.2l0,0V1110.7z"/>
	<path d="M2862,1073.3L2862,1073.3c-2.8,0-5.1-2.3-5.1-5.1l0,0c0-2.8,2.3-5.1,5.1-5.1l0,0c2.8,0,5.1,2.3,5.1,5.1l0,0
		C2867.2,1071,2864.9,1073.3,2862,1073.3z"/>
	<polygon points="2869.3,1093.1 2869.3,1110.7 2884.5,1110.7 	"/>
	<polygon points="2903.6,1093.8 2903.6,1076.2 2888.4,1076.2 	"/>
	<polygon points="2869.3,1088.3 2888.4,1110.7 2903.8,1110.7 2903.6,1097.4 2885.2,1076.2 2869.3,1076.2 	"/>
	<rect x="2922.4" y="1076.2" width="2.8" height="34.5"/>
	<polygon points="2925.1,1076.2 2940.4,1076.2 2940.4,1091 2925.1,1076.7 	"/>
	<polygon points="2925.1,1110.7 2940.4,1110.7 2940.4,1095.9 2925.1,1110.2 	"/>
</g>
<g id="Thin-S">
	<rect x="811.3" y="649.1" width="7.7" height="26.2"/>
	<path d="M861.1,675.2L861.1,675.2c-7.2,0-13.1-5.9-13.1-13.1v0c0-7.2,5.9-13.1,13.1-13.1h0V675.2z"/>
	<path d="M815.2,646.9L815.2,646.9c-2.1,0-3.9-1.7-3.9-3.9l0,0c0-2.1,1.7-3.9,3.9-3.9l0,0c2.1,0,3.9,1.7,3.9,3.9l0,0
		C819,645.2,817.3,646.9,815.2,646.9z"/>
	<polygon points="820.7,661.9 820.7,675.2 832.2,675.2 	"/>
	<polygon points="846.7,662.4 846.7,649.1 835.2,649.1 	"/>
	<polygon points="820.7,658.3 835.2,675.2 846.8,675.2 846.7,665.1 832.7,649.1 820.7,649.1 	"/>
	<rect x="860.9" y="649.1" width="2.1" height="26.2"/>
	<polygon points="863.1,649.1 874.6,649.1 874.6,660.3 863.1,649.5 	"/>
	<polygon points="863.1,675.2 874.6,675.2 874.6,664 863.1,674.9 	"/>
</g>
<g id="Light-S_1_">
	<rect x="1111" y="646.6" width="7.7" height="26.2"/>
	<path d="M1160.8,672.8L1160.8,672.8c-7.2,0-13.1-5.9-13.1-13.1l0,0c0-7.2,5.9-13.1,13.1-13.1l0,0V672.8z"/>
	<path d="M1114.8,644.4L1114.8,644.4c-2.1,0-3.9-1.7-3.9-3.9l0,0c0-2.1,1.7-3.9,3.9-3.9l0,0c2.1,0,3.9,1.7,3.9,3.9l0,0
		C1118.7,642.7,1117,644.4,1114.8,644.4z"/>
	<polygon points="1120.3,659.4 1120.3,672.8 1131.9,672.8 	"/>
	<polygon points="1146.4,660 1146.4,646.6 1134.8,646.6 	"/>
	<polygon points="1120.3,655.8 1134.9,672.8 1146.5,672.8 1146.4,662.7 1132.4,646.6 1120.3,646.6 	"/>
	<rect x="1160.6" y="646.6" width="2.1" height="26.2"/>
	<polygon points="1162.7,646.6 1174.3,646.6 1174.3,657.8 1162.7,647 	"/>
	<polygon points="1162.7,672.7 1174.3,672.7 1174.3,661.5 1162.7,672.4 	"/>
</g>
<g id="Regular-S">
	<rect x="1409.6" y="646.6" width="7.7" height="26.2"/>
	<path d="M1459.4,672.8L1459.4,672.8c-7.2,0-13.1-5.9-13.1-13.1l0,0c0-7.2,5.9-13.1,13.1-13.1l0,0V672.8z"/>
	<path d="M1413.5,644.4L1413.5,644.4c-2.1,0-3.9-1.7-3.9-3.9l0,0c0-2.1,1.7-3.9,3.9-3.9l0,0c2.1,0,3.9,1.7,3.9,3.9l0,0
		C1417.3,642.7,1415.6,644.4,1413.5,644.4z"/>
	<polygon points="1419,659.4 1419,672.8 1430.5,672.8 	"/>
	<polygon points="1445,660 1445,646.6 1433.5,646.6 	"/>
	<polygon points="1419,655.8 1433.5,672.8 1445.1,672.8 1445,662.7 1431,646.6 1419,646.6 	"/>
	<rect x="1459.2" y="646.6" width="2.1" height="26.2"/>
	<polygon points="1461.4,646.6 1472.9,646.6 1472.9,657.8 1461.4,647 	"/>
	<polygon points="1461.4,672.7 1472.9,672.7 1472.9,661.5 1461.4,672.4 	"/>
</g>
<g id="Medium-S">
	<rect x="1705.8" y="649.7" width="7.7" height="26.2"/>
	<path d="M1755.6,675.9L1755.6,675.9c-7.2,0-13.1-5.9-13.1-13.1l0,0c0-7.2,5.9-13.1,13.1-13.1l0,0V675.9z"/>
	<path d="M1709.7,647.5L1709.7,647.5c-2.1,0-3.9-1.7-3.9-3.9l0,0c0-2.1,1.7-3.9,3.9-3.9l0,0c2.1,0,3.9,1.7,3.9,3.9l0,0
		C1713.6,645.8,1711.8,647.5,1709.7,647.5z"/>
	<polygon points="1715.2,662.5 1715.2,675.9 1726.8,675.9 	"/>
	<polygon points="1741.3,663.1 1741.3,649.7 1729.7,649.7 	"/>
	<polygon points="1715.2,658.9 1729.7,675.9 1741.4,675.9 1741.2,665.8 1727.3,649.7 1715.2,649.7 	"/>
	<rect x="1755.5" y="649.7" width="2.1" height="26.2"/>
	<polygon points="1757.6,649.7 1769.2,649.7 1769.2,661 1757.6,650.1 	"/>
	<polygon points="1757.6,675.9 1769.2,675.9 1769.2,664.6 1757.6,675.5 	"/>
</g>
<g id="Semibold-S">
	<rect x="2004.5" y="649.7" width="7.7" height="26.2"/>
	<path d="M2054.3,675.9L2054.3,675.9c-7.2,0-13.1-5.9-13.1-13.1l0,0c0-7.2,5.9-13.1,13.1-13.1l0,0V675.9z"/>
	<path d="M2008.3,647.5L2008.3,647.5c-2.1,0-3.9-1.7-3.9-3.9l0,0c0-2.1,1.7-3.9,3.9-3.9l0,0c2.1,0,3.9,1.7,3.9,3.9l0,0
		C2012.2,645.8,2010.5,647.5,2008.3,647.5z"/>
	<polygon points="2013.8,662.5 2013.8,675.9 2025.4,675.9 	"/>
	<polygon points="2039.9,663.1 2039.9,649.7 2028.3,649.7 	"/>
	<polygon points="2013.8,658.9 2028.4,675.9 2040,675.9 2039.9,665.8 2025.9,649.7 2013.8,649.7 	"/>
	<rect x="2054.1" y="649.7" width="2.1" height="26.2"/>
	<polygon points="2056.2,649.7 2067.8,649.7 2067.8,661 2056.2,650.1 	"/>
	<polygon points="2056.2,675.9 2067.8,675.9 2067.8,664.6 2056.2,675.5 	"/>
</g>
<g id="Bold-S">
	<rect x="2293.4" y="651.6" width="7.7" height="26.2"/>
	<path d="M2343.2,677.7L2343.2,677.7c-7.2,0-13.1-5.9-13.1-13.1v0c0-7.2,5.9-13.1,13.1-13.1l0,0V677.7z"/>
	<path d="M2297.3,649.4L2297.3,649.4c-2.1,0-3.9-1.7-3.9-3.9l0,0c0-2.1,1.7-3.9,3.9-3.9l0,0c2.1,0,3.9,1.7,3.9,3.9l0,0
		C2301.2,647.6,2299.4,649.4,2297.3,649.4z"/>
	<polygon points="2302.8,664.4 2302.8,677.7 2314.4,677.7 	"/>
	<polygon points="2328.9,664.9 2328.9,651.6 2317.3,651.6 	"/>
	<polygon points="2302.8,660.8 2317.3,677.7 2328.9,677.7 2328.8,667.6 2314.8,651.6 2302.8,651.6 	"/>
	<rect x="2343.1" y="651.6" width="2.1" height="26.2"/>
	<polygon points="2345.2,651.6 2356.8,651.6 2356.8,662.8 2345.2,651.9 	"/>
	<polygon points="2345.2,677.7 2356.8,677.7 2356.8,666.5 2345.2,677.4 	"/>
</g>
<g id="Heavy-S">
	<rect x="2592" y="651.6" width="7.7" height="26.2"/>
	<path d="M2641.8,677.7L2641.8,677.7c-7.2,0-13.1-5.9-13.1-13.1v0c0-7.2,5.9-13.1,13.1-13.1l0,0V677.7z"/>
	<path d="M2595.9,649.4L2595.9,649.4c-2.1,0-3.9-1.7-3.9-3.9l0,0c0-2.1,1.7-3.9,3.9-3.9l0,0c2.1,0,3.9,1.7,3.9,3.9l0,0
		C2599.8,647.6,2598.1,649.4,2595.9,649.4z"/>
	<polygon points="2601.4,664.4 2601.4,677.7 2613,677.7 	"/>
	<polygon points="2627.5,664.9 2627.5,651.6 2615.9,651.6 	"/>
	<polygon points="2601.4,660.8 2615.9,677.7 2627.6,677.7 2627.5,667.6 2613.5,651.6 2601.4,651.6 	"/>
	<rect x="2641.7" y="651.6" width="2.1" height="26.2"/>
	<polygon points="2643.8,651.6 2655.4,651.6 2655.4,662.8 2643.8,651.9 	"/>
	<polygon points="2643.8,677.7 2655.4,677.7 2655.4,666.5 2643.8,677.4 	"/>
</g>
<g id="Black-S">
	<rect x="2884.9" y="650.1" width="7.7" height="26.2"/>
	<path d="M2934.7,676.3L2934.7,676.3c-7.2,0-13.1-5.9-13.1-13.1v0c0-7.2,5.9-13.1,13.1-13.1l0,0V676.3z"/>
	<path d="M2888.8,648L2888.8,648c-2.1,0-3.9-1.7-3.9-3.9l0,0c0-2.1,1.7-3.9,3.9-3.9l0,0c2.1,0,3.9,1.7,3.9,3.9l0,0
		C2892.7,646.2,2890.9,648,2888.8,648z"/>
	<polygon points="2894.3,663 2894.3,676.3 2905.9,676.3 	"/>
	<polygon points="2920.4,663.5 2920.4,650.1 2908.8,650.1 	"/>
	<polygon points="2894.3,659.3 2908.8,676.3 2920.5,676.3 2920.3,666.2 2906.4,650.1 2894.3,650.1 	"/>
	<rect x="2934.6" y="650.1" width="2.1" height="26.2"/>
	<polygon points="2936.7,650.1 2948.3,650.1 2948.3,661.4 2936.7,650.5 	"/>
	<polygon points="2936.7,676.3 2948.3,676.3 2948.3,665.1 2936.7,675.9 	"/>
</g>
</svg>
